<?xml version="1.0" encoding="utf-8"?>
<!-- Generator: Adobe Illustrator 23.0.0, SVG Export Plug-In . SVG Version: 6.00 Build 0)  -->
<svg version="1.1" id="Calque_1" xmlns="http://www.w3.org/2000/svg" xmlns:xlink="http://www.w3.org/1999/xlink" x="0px" y="0px"
	 viewBox="0 0 350 44.4" style="enable-background:new 0 0 350 44.4;" xml:space="preserve">
<style type="text/css">
	.st0{fill-rule:evenodd;clip-rule:evenodd;fill:#FFFFFF;}
	.st1{fill:#FFFFFF;filter:url(#Adobe_OpacityMaskFilter);}
	.st2{mask:url(#mask0_1_);}
	.st3{fill-rule:evenodd;clip-rule:evenodd;fill:#FFFFFE;}
	.st4{fill-rule:evenodd;clip-rule:evenodd;}
	.st5{fill-rule:evenodd;clip-rule:evenodd;fill:#E32119;}
</style>
<g>
	<g>
		<path class="st0" d="M144.9,1.5H99.2v9.6h16.4v31.6h13.2V11.1h16.1V1.5z"/>
		<path class="st0" d="M149,42.7h13.4V1.5H149V42.7z"/>
		<path class="st0" d="M349.7,1.5H304v9.6h16.4v31.6h13.2V11.1h16.1V1.5z"/>
		<defs>
			<filter id="Adobe_OpacityMaskFilter" filterUnits="userSpaceOnUse" x="0.1" y="0.1" width="305.4" height="44">
				<feColorMatrix  type="matrix" values="1 0 0 0 0  0 1 0 0 0  0 0 1 0 0  0 0 0 1 0"/>
			</filter>
		</defs>
		<mask maskUnits="userSpaceOnUse" x="0.1" y="0.1" width="305.4" height="44" id="mask0_1_">
			<path class="st1" d="M0.1,0.1h305.4v44H0.1V0.1z"/>
		</mask>
		<g class="st2">
			<path class="st0" d="M281.7,36.1c7,0,10.3-6.3,10.3-14.1c0-7.8-3.8-14.1-10.3-14.1c-7.6,0-10.5,6.3-10.5,14.1
				C271.2,29.8,274.2,36.1,281.7,36.1z M257.9,22c0-14.3,10.7-21.4,23.8-21.4c13.2,0,23.8,8,23.8,21.4c0,13.5-10.7,21.4-23.8,21.4
				C268.5,43.4,257.9,37.2,257.9,22z"/>
			<path class="st0" d="M253.2,14.9c-4,0-7.9,0-11.9,0c-0.6-2.1-1.6-3.9-3.5-5.2c-2.3-1.5-5-1.7-7.6-1c-2,0.5-4.2,2.2-3.3,4.5
				c0.5,1.4,2,2,3.3,2.4c6.6,1.8,13.3,2.1,19.3,5.8c3,1.8,4.6,4.9,4.5,8.2c-0.2,14-17.3,15.7-28.5,13.4c-7.2-1.5-14.1-6.8-13.5-14.7
				c4.2,0,8.3,0,12.5,0c0.8,1.7,0.5,3.4,1.6,5c0.6,0.9,1.4,1.7,2.3,2.1c0.7,0.4,1.4,0.8,2.2,1c2.1,0.5,4.2,0.6,6.2-0.1
				c1.5-0.5,2.7-1.5,3.4-2.9c0.4-0.8,0.3-1.7,0.1-2.6c-0.2-0.5-0.5-0.9-0.7-1.3c-1-1.5-2.7-1.9-4.3-2.4c-7.3-2.3-16.8-1.4-20.8-9
				c-1.2-2.3-1.2-4.8-0.6-7.4c0.4-1.8,1.6-3.3,2.9-4.5c1.2-1.1,2.5-2.2,4.1-3c7.7-3.5,16.6-3.1,24.1,0.2
				C249.3,5.5,253,9.7,253.2,14.9z"/>
			<path class="st0" d="M207.9,14.7c-4,0-7.9,0-11.9,0c-0.6-2.1-1.6-3.9-3.5-5.2c-2.3-1.5-5-1.7-7.6-1c-2,0.5-4.2,2.2-3.3,4.5
				c0.5,1.4,2,2,3.3,2.4c6.6,1.8,13.3,2.1,19.3,5.8c3,1.8,4.6,4.9,4.5,8.2c-0.2,14-17.3,15.7-28.5,13.4c-7.2-1.5-14.1-6.8-13.5-14.7
				c4.2,0,8.3,0,12.5,0c0.8,1.7,0.5,3.4,1.6,5c0.6,0.9,1.4,1.7,2.3,2.1c0.7,0.4,1.4,0.8,2.2,1c2.1,0.5,4.2,0.6,6.2-0.1
				c1.5-0.5,2.7-1.5,3.4-2.9c0.4-0.8,0.4-1.7,0.1-2.6c-0.2-0.5-0.5-0.9-0.7-1.3c-1-1.5-2.7-1.9-4.3-2.4c-7.3-2.3-16.9-1.4-20.8-9
				c-1.2-2.3-1.2-4.8-0.6-7.4c0.4-1.8,1.6-3.3,2.9-4.5c1.2-1.1,2.5-2.2,4.1-3c7.7-3.5,16.6-3.1,24.1,0.2
				C204,5.3,207.7,9.5,207.9,14.7z"/>
			<path class="st3" d="M0.1,44.1H44v-44H0.1V44.1z"/>
		</g>
		<path class="st3" d="M47.7,44.1h44v-44h-44V44.1z"/>
		<path class="st4" d="M1.4,42.7h41.2V1.5H1.4V42.7z"/>
		<path class="st5" d="M49.1,42.7h41.2V1.5H49.1V42.7z"/>
		<path class="st3" d="M85,17.6H74.2V6.8h-9.1v10.8H54.4v9.1h10.8v10.8h9.1V26.6H85V17.6z"/>
		<path class="st3" d="M37.3,6.8H6.7v7.1h10.6v23.5h9.5V13.9h10.6V6.8z"/>
	</g>
</g>
</svg>
